# xmcd CD database file
#
# Track frame offsets:
#	150
#	16165
#	61540
#	89220
#	97661
#	114828
#	124509
#	136515
#	155319
#
# Disc length: 2857 seconds
#
# Revision: 0
# Processed by: cddbd v1.5.1PL0 Copyright (c) Steve Scherf et al.
# Submitted via: CDex 1.51
#
DISCID=580b2709
DTITLE=Rob Clutton - Dubious Pleasures
DYEAR=2005
DGENRE=Jazz
TTITLE0=Taken Over By The Hands Of Reason
TTITLE1=How Big Are The Dots
TTITLE2=Formal Garden
TTITLE3=Mr. Taciturn
TTITLE4=Half Smile
TTITLE5=Air
TTITLE6=Cloak
TTITLE7=Musicians and Animals
TTITLE8=Pond
EXTD=YEAR: 2005
EXTT0=
EXTT1=
EXTT2=
EXTT3=
EXTT4=
EXTT5=
EXTT6=
EXTT7=
EXTT8=
PLAYORDER=
